<svg xmlns="http://www.w3.org/2000/svg" viewBox="0 0 800 500" fill="none">
  <rect width="800" height="500" rx="12" fill="#F8F9FC"/>
  <rect x="24" y="24" width="180" height="452" rx="8" fill="#fff" stroke="#E8EAEF"/>
  <rect x="44" y="48" width="80" height="10" rx="4" fill="#6C63FF" opacity="0.9"/>
  <rect x="44" y="80" width="120" height="8" rx="3" fill="#E8EAEF"/>
  <rect x="44" y="104" width="100" height="8" rx="3" fill="#E8EAEF"/>
  <rect x="44" y="128" width="110" height="8" rx="3" fill="#E8EAEF"/>
  <rect x="220" y="24" width="556" height="80" rx="8" fill="#fff" stroke="#E8EAEF"/>
  <rect x="244" y="48" width="140" height="12" rx="4" fill="#1A1D26"/>
  <rect x="244" y="72" width="200" height="8" rx="3" fill="#9CA3AF"/>
  <rect x="220" y="120" width="270" height="180" rx="8" fill="#fff" stroke="#E8EAEF"/>
  <rect x="244" y="144" width="100" height="10" rx="3" fill="#6B7280"/>
  <path d="M260 280 L300 240 L340 260 L400 200 L460 220 L520 160" stroke="#6C63FF" stroke-width="3" stroke-linecap="round" stroke-linejoin="round"/>
  <rect x="510" y="120" width="266" height="180" rx="8" fill="#fff" stroke="#E8EAEF"/>
  <rect x="534" y="144" width="80" height="10" rx="3" fill="#6B7280"/>
  <rect x="534" y="200" width="200" height="12" rx="4" fill="#6C63FF" opacity="0.2"/>
  <rect x="534" y="220" width="160" height="12" rx="4" fill="#6C63FF" opacity="0.35"/>
  <rect x="534" y="240" width="180" height="12" rx="4" fill="#6C63FF" opacity="0.5"/>
  <rect x="220" y="316" width="556" height="160" rx="8" fill="#fff" stroke="#E8EAEF"/>
  <rect x="244" y="340" width="120" height="10" rx="3" fill="#6B7280"/>
  <rect x="260" y="380" width="48" height="72" rx="4" fill="#6C63FF" opacity="0.7"/>
  <rect x="328" y="400" width="48" height="52" rx="4" fill="#6C63FF" opacity="0.5"/>
  <rect x="396" y="360" width="48" height="92" rx="4" fill="#6C63FF" opacity="0.85"/>
  <rect x="464" y="390" width="48" height="62" rx="4" fill="#6C63FF" opacity="0.6"/>
  <rect x="532" y="370" width="48" height="82" rx="4" fill="#6C63FF" opacity="0.75"/>
  <rect x="600" y="410" width="48" height="42" rx="4" fill="#6C63FF" opacity="0.45"/>
</svg>
