<svg xmlns="http://www.w3.org/2000/svg" viewBox="0 0 800 500" fill="none">
  <rect width="800" height="500" rx="12" fill="#F8F9FC"/>
  <rect x="24" y="24" width="752" height="48" rx="8" fill="#fff" stroke="#E8EAEF"/>
  <rect x="48" y="40" width="120" height="12" rx="4" fill="#1A1D26"/>
  <rect x="600" y="36" width="80" height="24" rx="6" fill="#6C63FF" opacity="0.15"/>
  <rect x="48" y="96" width="220" height="380" rx="8" fill="#fff" stroke="#E8EAEF"/>
  <rect x="68" y="116" width="80" height="10" rx="3" fill="#6B7280"/>
  <rect x="68" y="140" width="180" height="72" rx="6" fill="#F3F4F6" stroke="#E5E7EB"/>
  <rect x="80" y="152" width="100" height="8" rx="2" fill="#374151"/>
  <rect x="80" y="168" width="140" height="6" rx="2" fill="#9CA3AF"/>
  <rect x="68" y="224" width="180" height="72" rx="6" fill="#fff" stroke="#6C63FF" stroke-width="1.5"/>
  <rect x="80" y="236" width="90" height="8" rx="2" fill="#374151"/>
  <rect x="80" y="252" width="120" height="6" rx="2" fill="#9CA3AF"/>
  <rect x="290" y="96" width="220" height="380" rx="8" fill="#fff" stroke="#E8EAEF"/>
  <rect x="310" y="116" width="100" height="10" rx="3" fill="#6B7280"/>
  <rect x="310" y="140" width="180" height="72" rx="6" fill="#F3F4F6" stroke="#E5E7EB"/>
  <rect x="322" y="152" width="110" height="8" rx="2" fill="#374151"/>
  <rect x="310" y="224" width="180" height="72" rx="6" fill="#F3F4F6" stroke="#E5E7EB"/>
  <rect x="532" y="96" width="220" height="380" rx="8" fill="#fff" stroke="#E8EAEF"/>
  <rect x="552" y="116" width="80" height="10" rx="3" fill="#6B7280"/>
  <rect x="552" y="140" width="180" height="72" rx="6" fill="#ECFDF5" stroke="#10B981" stroke-opacity="0.3"/>
  <rect x="564" y="152" width="100" height="8" rx="2" fill="#374151"/>
  <rect x="564" y="168" width="60" height="20" rx="10" fill="#10B981" opacity="0.2"/>
</svg>
